# xmcd
#
# Track frame offsets: 
#        150
#        32553
#        71401
#        94745
#        118389
#        141605
#        159838
#        183097
#        208130
#        226653
#        247914
#
# Disc length: 3544 seconds
#
# Revision: 2
# Processed by: cddbd v1.5.2PL0 Copyright (c) Steve Scherf et al.
# Submitted via: ExactAudioCopy v1.0b3
#
DISCID=900dd60b
DTITLE=Various Artist - Buddha Chill
DYEAR=2007
DGENRE=Chillout
TTITLE0=Bahramji and Maneesh De Moor - Crazy Heart
TTITLE1=Glideascope - Road To Istanbul
TTITLE2=Apollo Nove - Fruta Vermelha
TTITLE3=Irina And Todd - Dereye (Toires Frisco Mix)
TTITLE4=Niray Chag - The Nomad
TTITLE5=Transglobal Underfround - The Khaleegi Stomp (Thievery Corpora
TTITLE5=tion Mix)
TTITLE6=Smadar - Mama
TTITLE7=Angel Tears - Habibi
TTITLE8=Celt Islam Soundsystem - Fakir
TTITLE9=Samsara Sound System - Serpent Waves
TTITLE10=Kiran Ahluwalia - Rabh Da Roop (Image Of Haven)
EXTD=
EXTT0=
EXTT1=
EXTT2=
EXTT3=
EXTT4=
EXTT5=
EXTT6=
EXTT7=
EXTT8=
EXTT9=
EXTT10=
PLAYORDER=
